Coordinates
version=1
nRows=4
nColumns=63
inDegrees=yes

Units are S.I. units (second, meters, Newtons, ...)
If the header above contains a line with 'inDegrees', this indicates whether rotational values are in degrees (yes) or radians (no).

endheader
time	pelvis_tilt	pelvis_list	pelvis_rotation	pelvis_tx	pelvis_ty	pelvis_tz	hip_flexion_r	hip_adduction_r	hip_rotation_r	knee_angle_r	knee_angle_r_beta	ankle_angle_r	subtalar_angle_r	mtp_angle_r	hip_flexion_l	hip_adduction_l	hip_rotation_l	knee_angle_l	knee_angle_l_beta	ankle_angle_l	subtalar_angle_l	mtp_angle_l	L5_S1_Flex_Ext	L5_S1_Lat_Bending	L5_S1_axial_rotation	L4_L5_Flex_Ext	L4_L5_Lat_Bending	L4_L5_axial_rotation	L3_L4_Flex_Ext	L3_L4_Lat_Bending	L3_L4_axial_rotation	L2_L3_Flex_Ext	L2_L3_Lat_Bending	L2_L3_axial_rotation	L1_L2_Flex_Ext	L1_L2_Lat_Bending	L1_L2_axial_rotation	L1_T12_Flex_Ext	L1_T12_Lat_Bending	L1_T12_axial_rotation	Abs_r3	Abs_r2	Abs_r1	Abs_t1	Abs_t2	neck_flexion	neck_bending	neck_rotation	arm_flex_r	arm_add_r	arm_rot_r	elbow_flex_r	pro_sup_r	wrist_flex_r	wrist_dev_r	arm_flex_l	arm_add_l	arm_rot_l	elbow_flex_l	pro_sup_l	wrist_flex_l	wrist_dev_l
      0.66101695	      5.52785994	     -1.62395090	     87.70466733	      0.45873086	      0.70434789	      0.77720270	      9.53605567	      3.46099718	     -1.86489500	      1.27745348	      0.02229577	      7.94348832	    -17.03183755	      0.00000000	      9.85563128	     -2.61182818	     -1.61025861	      3.08303704	      0.05380915	     21.89127014	      8.73055943	      0.00000000	      0.30507190	     -0.47098514	     -1.13366569	      0.56654902	     -0.62641024	     -1.20451980	      0.50120262	     -1.14515327	     -1.20451980	      0.34866667	     -1.14515327	     -0.99195748	      0.28328976	     -0.96043290	     -0.92110338	      0.17431808	     -0.72955598	     -0.85024927	      2.17909806	     -5.32787812	     -6.30510848	      0.00000000	      0.00000000	     15.02201724	      2.83085920	      7.26400346	     37.38068092	    -14.22301885	     36.89781196	    144.31656249	     87.56099196	    -12.64492098	     13.59812148	     29.49702067	    -29.54749378	     42.41920394	     27.15141867	     86.28738321	     -7.81599315	      5.21859264
      0.67796610	      5.28891681	     -1.80502560	     86.95033143	      0.46064302	      0.70381564	      0.77667896	      9.74069470	      3.39772947	     -0.99006092	      1.27712915	      0.02229011	      8.27424520	    -17.05961664	      0.00000000	      9.84143808	     -2.50159911	     -1.18341375	      2.86256212	      0.04996113	     21.57862653	      7.05424753	      0.00000000	      0.32834456	     -0.51991104	     -0.83014385	      0.60976869	     -0.69148169	     -0.88202784	      0.53943728	     -1.26411171	     -0.88202784	      0.37526500	     -1.26411171	     -0.72637587	      0.30490076	     -1.06020260	     -0.67449188	      0.18761608	     -0.80534221	     -0.62260789	      2.34533238	     -5.88133770	     -4.61701107	      0.00000000	      0.00000000	     15.34554362	      2.30966709	      5.52522896	     39.29747354	    -13.59705679	     36.25212161	    145.64876958	     87.20184405	     -8.17213907	     15.90296977	     31.90740217	    -29.04925804	     49.24236764	     22.49191918	     81.71215371	     -8.70266949	      5.37771045
      0.69491525	      5.05341005	     -2.13275495	     86.38463233	      0.46178298	      0.70293787	      0.77684747	     10.12750154	      3.29219073	     -0.17970498	      1.22626743	      0.02140240	      8.88622783	    -16.88237554	      0.00000000	     10.13154242	     -2.37506983	     -1.55096556	      2.84696244	      0.04968887	     21.21603744	      6.52496917	      0.00000000	      0.35097173	     -0.56165273	     -0.67687586	      0.65178960	     -0.74699813	     -0.71918061	      0.57661145	     -1.36560245	     -0.71918061	      0.40112559	     -1.36560245	     -0.59226638	      0.32591235	     -1.14532225	     -0.54996164	      0.20054525	     -0.87000008	     -0.50765690	      2.50695597	     -6.35352803	     -3.76458049	      0.00000000	      0.00000000	     16.11348519	      2.07944255	      4.81988177	     41.23198639	    -13.08052389	     36.52573787	    146.22855393	     86.18119588	     -7.21020097	     16.18193315	     32.19491054	    -28.62342249	     47.44330748	     19.72509574	     78.13213052	     -7.76800204	      7.77901884
      0.71186441	      5.12029359	     -2.45669392	     85.82351167	      0.46125947	      0.70251715	      0.77731499	     10.50661215	      3.40742776	      0.83422416	      1.14322921	      0.01995311	      9.04236057	    -16.76767872	      0.00000000	     10.41125087	     -2.46862807	     -1.52404594	      2.84512252	      0.04965676	     20.81912758	      5.46256224	      0.00000000	      0.36613859	     -0.53875841	     -0.51689160	      0.67995598	     -0.71654869	     -0.54919732	      0.60152909	     -1.30993721	     -0.54919732	      0.41845980	     -1.30993721	     -0.45228015	      0.33999630	     -1.09863616	     -0.41997442	      0.20921159	     -0.83453678	     -0.38766870	      2.61529134	     -6.09454293	     -2.87479601	      0.00000000	      0.00000000	     16.79148893	      1.60271964	      5.28715459	     42.48602441	    -13.00915853	     36.75611497	    146.45531192	     84.36001733	     -6.95980336	     15.69232514	     37.61933154	    -24.58435467	    123.89940390	      4.55494018	      4.35059883	     -0.35131409	      2.15201638
